<?xml version="1.0" encoding="UTF-8"?>
<svg width="243px" height="228px" viewBox="0 0 243 228" version="1.1" xmlns="http://www.w3.org/2000/svg" xmlns:xlink="http://www.w3.org/1999/xlink">
    <title>EB7364CB-7400-43A2-9F30-D5E9D30C8F7D</title>
    <defs>
        <filter x="-28.8%" y="-25.4%" width="157.5%" height="150.8%" filterUnits="objectBoundingBox" id="filter-1">
            <feOffset dx="0" dy="-1" in="SourceAlpha" result="shadowOffsetOuter1"></feOffset>
            <feGaussianBlur stdDeviation="9.5" in="shadowOffsetOuter1" result="shadowBlurOuter1"></feGaussianBlur>
            <feColorMatrix values="0 0 0 0 0.7432   0 0 0 0 0.7576   0 0 0 0 0.7768  0 0 0 0.580677379 0" type="matrix" in="shadowBlurOuter1" result="shadowMatrixOuter1"></feColorMatrix>
            <feMerge>
                <feMergeNode in="shadowMatrixOuter1"></feMergeNode>
                <feMergeNode in="SourceGraphic"></feMergeNode>
            </feMerge>
        </filter>
    </defs>
    <g id="APP" stroke="none" stroke-width="1" fill="none" fill-rule="evenodd">
        <g id="10-ATTESTATION1" transform="translate(-66.000000, -154.000000)">
            <g id="POPIN" transform="translate(15.000000, 130.000000)">
                <g id="ILLU" transform="translate(51.000000, 30.000000)">
                    <path d="M121.5,0 C214.113277,0 243,29.4798528 243,107.5 C243,185.520147 214.113277,215 121.5,215 C28.8867231,215 0,185.520147 0,107.5 C0,29.4798528 28.8867231,0 121.5,0 Z" id="fond" fill="#384257"></path>
                    <g id="formes" opacity="0.541124616" transform="translate(14.000000, 34.087360)">
                        <g id="Group-13">
                            <g id="Group-11" transform="translate(0.000000, 1.941129)" fill="#FFA029">
                                <ellipse id="Oval" cx="41.3930691" cy="21.0880829" rx="4.05814403" ry="4.05540055"></ellipse>
                                <ellipse id="Oval" opacity="0.611833845" cx="65.3361189" cy="7.70526104" rx="2.84070082" ry="2.83878038"></ellipse>
                                <ellipse id="Oval" cx="13.5947825" cy="22.507473" rx="3.04360802" ry="3.04155041"></ellipse>
                                <ellipse id="Oval" cx="28.8128226" cy="2.83878038" rx="2.84070082" ry="2.83878038"></ellipse>
                                <ellipse id="Oval" cx="23.5211799" cy="52.6187505" rx="4.05814403" ry="4.05540055"></ellipse>
                                <ellipse id="Oval" cx="2.84070082" cy="43.3927859" rx="2.84070082" ry="2.83878038"></ellipse>
                            </g>
                            <g id="Group-12" transform="translate(178.367084, 35.129130) rotate(88.000000) translate(-178.367084, -35.129130) translate(144.278674, 4.713626)">
                                <g id="Group-11" transform="translate(0.000000, -0.000000)">
                                    <ellipse id="Oval" fill="#FFA029" opacity="0.611833845" cx="65.3361189" cy="2.83878038" rx="2.84070082" ry="2.83878038"></ellipse>
                                    <ellipse id="Oval" fill="#FFA029" cx="41.3930691" cy="16.2216022" rx="4.05814403" ry="4.05540055"></ellipse>
                                    <ellipse id="Oval" fill="#FFA029" cx="13.5947825" cy="17.6409924" rx="3.04360802" ry="3.04155041"></ellipse>
                                    <ellipse id="Oval" fill="#FAD461" cx="15.4209473" cy="56.7756077" rx="4.05814403" ry="4.05540055"></ellipse>
                                    <ellipse id="Oval" fill="#FFA029" cx="2.84070082" cy="38.5263052" rx="2.84070082" ry="2.83878038"></ellipse>
                                </g>
                                <g id="Group-10" transform="translate(38.146554, 48.664807)" fill="#F7E4A8">
                                    <ellipse id="Oval" cx="2.84070082" cy="2.83878038" rx="2.84070082" ry="2.83878038"></ellipse>
                                </g>
                            </g>
                        </g>
                        <g id="Group-13" opacity="0.611072359" transform="translate(107.583405, 113.772803) rotate(-180.000000) translate(-107.583405, -113.772803) translate(0.166810, 73.731927)">
                            <g id="Group-10" transform="translate(0.000000, 8.718301)">
                                <g id="Group-11">
                                    <ellipse id="Oval" fill="#E63312" cx="41.3930691" cy="21.0880829" rx="4.05814403" ry="4.05540055"></ellipse>
                                    <ellipse id="Oval" fill="#E63312" opacity="0.611833845" cx="65.3361189" cy="7.70526104" rx="2.84070082" ry="2.83878038"></ellipse>
                                    <ellipse id="Oval" fill="#E63312" cx="13.5947825" cy="22.507473" rx="3.04360802" ry="3.04155041"></ellipse>
                                    <ellipse id="Oval" fill="#E63312" cx="28.8128226" cy="2.83878038" rx="2.84070082" ry="2.83878038"></ellipse>
                                    <ellipse id="Oval" fill="#E63312" cx="15.4209473" cy="61.6420883" rx="4.05814403" ry="4.05540055"></ellipse>
                                    <ellipse id="Oval" fill="#CBE7E8" cx="2.84070082" cy="43.3927859" rx="2.84070082" ry="2.83878038"></ellipse>
                                </g>
                                <g id="Group-11" transform="translate(10.551174, 0.000000)">
                                    <ellipse id="Oval" fill="#BC6411" cx="31.7419205" cy="21.9875003" rx="4.95816991" ry="4.95481797"></ellipse>
                                    <ellipse id="Oval" fill="#BC6411" opacity="0.611833845" cx="54.7849444" cy="7.70526104" rx="2.84070082" ry="2.83878038"></ellipse>
                                    <ellipse id="Oval" fill="#BC6411" cx="3.04360802" cy="22.507473" rx="3.04360802" ry="3.04155041"></ellipse>
                                    <ellipse id="Oval" fill="#BC6411" cx="18.2616481" cy="2.83878038" rx="2.84070082" ry="2.83878038"></ellipse>
                                    <ellipse id="Oval" fill="#FFA029" cx="4.86977284" cy="61.6420883" rx="4.05814403" ry="4.05540055"></ellipse>
                                </g>
                            </g>
                            <g id="Group-12" transform="translate(171.990642, 40.040876) rotate(88.000000) translate(-171.990642, -40.040876) translate(133.375276, -1.479308)">
                                <g id="Group-10" transform="translate(0.000000, 0.000000)">
                                    <g id="Group-11" transform="translate(9.053912, 0.000000)">
                                        <ellipse id="Oval" fill="#E63312" cx="41.3930691" cy="21.0880829" rx="4.05814403" ry="4.05540055"></ellipse>
                                        <ellipse id="Oval" fill="#E26D00" opacity="0.611833845" cx="65.3361189" cy="7.70526104" rx="2.84070082" ry="2.83878038"></ellipse>
                                        <ellipse id="Oval" fill="#E26D00" cx="13.5947825" cy="22.507473" rx="3.04360802" ry="3.04155041"></ellipse>
                                        <ellipse id="Oval" fill="#E63312" cx="28.8128226" cy="2.83878038" rx="2.84070082" ry="2.83878038"></ellipse>
                                        <ellipse id="Oval" fill="#FFA029" cx="19.7098875" cy="41.928802" rx="4.05814403" ry="4.05540055"></ellipse>
                                        <ellipse id="Oval" fill="#E26D00" cx="2.84070082" cy="43.3927859" rx="2.84070082" ry="2.83878038"></ellipse>
                                    </g>
                                    <g id="Group-11">
                                        <ellipse id="Oval" fill="#E26D00" cx="50.4469814" cy="21.0880829" rx="4.05814403" ry="4.05540055"></ellipse>
                                        <ellipse id="Oval" fill="#E26D00" cx="37.8667349" cy="2.83878038" rx="2.84070082" ry="2.83878038"></ellipse>
                                        <ellipse id="Oval" fill="#E26D00" cx="4.05814403" cy="78.9849686" rx="4.05814403" ry="4.05540055"></ellipse>
                                        <ellipse id="Oval" fill="#E63312" cx="16.5027507" cy="65.2554917" rx="1.93775666" ry="1.93644665"></ellipse>
                                    </g>
                                </g>
                                <g id="Group-10" transform="translate(47.200466, 53.531287)" fill="#E63312" opacity="0.611833845">
                                    <ellipse id="Oval" cx="2.84070082" cy="2.83878038" rx="2.84070082" ry="2.83878038"></ellipse>
                                </g>
                            </g>
                        </g>
                    </g>
                    <g id="badge" transform="translate(49.000000, 26.000000)" filter="url(#filter-1)">
                        <path d="M145,45.7723646 L145,118.242676 C144.997271,121.651784 143.172492,124.80091 140.212079,126.505463 L77.2857443,162.738448 C76.901099,162.959799 76.5010873,163.153459 76.0887641,163.31795 C73.3579029,164.423958 70.267906,164.210079 67.716432,162.738448 L4.78792063,126.505463 C1.82750842,124.80091 0.0027289512,121.651784 0,118.242676 L0,45.7723646 C0.00195218115,42.362481 1.82683569,39.2123482 4.78792063,37.5074067 L67.716432,1.27442159 C70.6810007,-0.424807197 74.3277046,-0.424807197 77.2922733,1.27442159 L140.216432,37.5074067 C143.175842,39.2134506 145,42.3633758 145,45.7723646 Z" id="Path" stroke="#FFFFFF" stroke-width="5.4" fill="#FFA029" fill-rule="nonzero"></path>
                        <path d="M72.5,152.63476 C70.4006817,152.633244 68.3385056,152.082428 66.5194519,151.037331 L15.5498604,121.688917 C11.8562929,119.551402 9.5809483,115.616524 9.57584126,111.357719 L9.57584126,52.6630616 C9.58262826,48.4035742 11.8606542,44.469187 15.5563894,42.3340346 L66.5194519,12.9856206 C70.2229214,10.8532259 74.7857839,10.8532259 78.4892534,12.9856206 L129.458845,42.3340346 C133.15458,44.469187 135.432606,48.4035742 135.439393,52.6630616 L135.439393,111.357719 C135.432935,115.617863 133.154925,119.55305 129.458845,121.688917 L78.4805481,151.037331 C76.6615729,152.082617 74.5993451,152.63476 72.5,152.63476 Z" id="Path" fill-rule="nonzero"></path>
                        <path d="M11.6213864,110.998284 L11.6213864,52.3036261 C11.6233386,48.8937425 13.4482221,45.7436098 16.4093071,44.0386682 L67.3680169,14.6924246 C70.329827,12.9829192 73.982048,12.9829192 76.9438581,14.6924246 L127.906921,44.0386682 C130.868006,45.7436098 132.692889,48.8937425 132.694841,52.3036261 L132.694841,110.998284 C132.692889,114.408167 130.868006,117.5583 127.906921,119.263242 L76.9351528,148.611656 C73.9723772,150.317572 70.3220872,150.317572 67.3593116,148.611656 L16.4093071,119.263242 C13.4482221,117.5583 11.6233386,114.408167 11.6213864,110.998284 Z" id="Path" fill="#FFA029" fill-rule="nonzero"></path>
                        <path d="M98.974076,54.1521175 C98.974076,50.5015586 97.0877872,47.3130699 94.2873584,45.4757891 C94.9749637,42.1872852 94.0356201,38.6117377 91.4729261,36.0493459 C88.9105343,33.4739516 85.3109841,32.5358075 82.0354826,33.2239133 C80.1011869,30.4234846 77.0007122,28.5481975 73.3701545,28.5481975 C69.7395968,28.5481975 66.5391099,30.4234846 64.5988134,33.2239133 C61.3983234,32.5368086 57.8377777,33.4869541 55.2673845,36.0493459 C52.6959901,38.6097385 51.7478454,42.2002876 52.4349516,45.4807887 C49.62252,47.3310719 47.770236,50.5315635 47.770236,54.1521175 C47.770236,57.772673 49.6345213,60.9781626 52.4349501,62.8284458 C51.7478454,66.1139495 52.707993,69.6944964 55.267386,72.254889 C57.8297778,74.8302833 61.3823221,75.7684275 64.6828275,75.0803216 C66.5391114,77.8957521 69.7496036,79.7560375 73.370156,79.7560375 C77.0087136,79.7560375 80.1852009,77.8807504 82.0354842,75.0803216 C85.3359895,75.7679269 88.9095377,74.8177814 91.4729276,72.254889 C94.0483219,69.6924972 94.9754627,66.1039473 94.28736,62.8284458 C97.1037885,60.9831621 98.974076,57.7826721 98.974076,54.1521175 L98.974076,54.1521175 Z M83.0016325,50.1615071 L71.7999175,61.3632221 C71.4198574,61.9233085 70.7997643,62.1533425 70.1896703,62.1533425 C69.5795763,62.1533425 68.9614824,61.9189072 68.4924103,61.4501342 L63.6916753,56.6493992 C62.7540318,55.7117557 62.7540318,54.1930234 63.6916753,53.2548793 C64.6293189,52.3167352 66.1480512,52.3172357 67.0861953,53.2548793 L70.1896703,56.3624565 L79.6941253,46.8580015 C80.6317689,45.9203579 82.1505012,45.9203579 83.0886453,46.8580015 C84.0267894,47.795645 84.0217868,49.311377 83.0016325,50.1615071 Z" fill="#FFFFFF" fill-rule="nonzero"></path>
                        <g id="logo" transform="translate(52.200000, 119.814203)" fill="#FFFFFF" fill-rule="nonzero">
                            <path d="M19.26615,9.99862118 C17.2134494,9.99862118 16.1534994,8.76612024 16.1534994,6.863767 L16.1534994,6.06008079 C16.1534994,4.17070123 17.2681789,2.93615182 19.0513889,2.93615182 C20.4785111,2.93615182 21.8377411,3.78012476 21.8377411,5.68247801 C21.8339341,6.10792244 21.7745597,6.53111273 21.6610828,6.94160916 L17.6658333,6.94160916 C17.6893878,8.05734685 18.1923444,8.60360765 19.3478978,8.60360765 C20.0316986,8.59341596 20.7064407,8.44782029 21.3320133,8.17547575 L21.7809333,9.47284516 C20.8297494,9.85113076 20.0136572,9.99862118 19.26615,9.99862118 Z M17.6727611,5.76509995 L20.282455,5.76509995 C20.2943072,5.68530436 20.2996356,5.60469918 20.2983889,5.52406237 C20.2983889,4.66643291 19.7441667,4.23761818 19.047925,4.23761818 C18.2200556,4.23761818 17.7441172,4.78729312 17.676225,5.76509995 L17.6727611,5.76509995 Z" id="Shape"></path>
                            <path d="M23.0826628,0.754522735 L26.1274211,0.754522735 C28.0713556,0.754522735 29.0370878,1.79924652 29.0370878,3.40730176 L29.0370878,4.11744081 C29.0370878,5.72481322 28.0720483,6.78046222 26.1274211,6.78046222 L24.7141544,6.78046222 L24.7141544,9.86205598 L23.0826628,9.86205598 L23.0826628,0.754522735 Z M24.7141544,2.2949782 L24.7141544,5.24273806 L26.1274211,5.24273806 C26.9296578,5.24273806 27.3647222,4.82689702 27.3647222,4.11744081 L27.3647222,3.40730176 C27.3647222,2.71013641 26.9296578,2.2949782 26.1274211,2.2949782 L24.7141544,2.2949782 Z" id="Shape"></path>
                            <path d="M35.7695022,6.863767 C35.7695022,8.76612024 34.6686783,9.99862118 32.752455,9.99862118 C30.8223761,9.99862118 29.734715,8.76612024 29.734715,6.863767 L29.734715,6.06008079 C29.734715,4.17070123 30.8085206,2.9382003 32.752455,2.9382003 C34.6825339,2.9382003 35.7695022,4.1672871 35.7695022,6.06008079 L35.7695022,6.863767 Z M32.752455,4.31819165 C31.8414522,4.31819165 31.3384956,4.97438744 31.3384956,6.06008079 L31.3384956,6.863767 C31.3384956,7.94877752 31.8414522,8.61862983 32.752455,8.61862983 C33.6634578,8.61862983 34.1657217,7.94877752 34.1657217,6.863767 L34.1657217,6.06008079 C34.1657217,4.97438744 33.662765,4.31819165 32.752455,4.31819165 Z" id="Shape"></path>
                            <path d="M38.1027778,6.863767 C38.1027778,8.01569446 38.4969683,8.57834309 39.4190556,8.57834309 C39.8679756,8.57834309 40.4381317,8.47113941 41.1177467,8.21644531 L41.5666667,9.51381472 C40.7512672,9.83474294 40.0425556,9.99588988 39.3373078,9.99588988 C37.515995,9.99588988 36.5371,8.76338894 36.5371,6.86103569 L36.5371,6.07305448 C36.5371,4.17070123 37.515995,2.93615182 39.3373078,2.93615182 C40.0169228,2.93615182 40.7103933,3.09661593 41.4987744,3.40525328 L41.0498544,4.73130138 C40.384095,4.47660728 39.85412,4.35642991 39.4190556,4.35642991 C38.49489,4.35642991 38.1027778,4.91907854 38.1027778,6.071006 L38.1027778,6.863767 Z" id="Path"></path>
                            <polygon id="Path" points="6.253705 5.41617587 6.29873556 12.5428309 0.0450305556 10.0184231 7.10542736e-15 2.89176813"></polygon>
                            <polygon id="Path" points="6.253705 5.41617587 11.4523094 2.52372491 11.49734 9.65037992 6.29873556 12.5428309"></polygon>
                            <polygon id="Path" points="7.10542736e-15 2.89176813 5.19791167 0 11.4523094 2.52372491 6.253705 5.41617587"></polygon>
                            <path d="M4.97345167,6.84259939 L1.09389611,5.27756219 C1.09389611,5.14782525 1.09389611,5.08295678 1.09389611,4.95390266 L4.97345167,6.51962269 C4.97206611,6.6486768 4.97275889,6.71354527 4.97345167,6.84259939 Z" id="Path"></path>
                            <path d="M4.97968667,7.8668384 L1.10013111,6.30180119 C1.10013111,6.17206425 1.10013111,6.10719578 1.10013111,5.97814167 L4.97968667,7.54317887 C4.97830111,7.67291581 4.97899389,7.73778428 4.97968667,7.8668384 Z" id="Path"></path>
                            <path d="M4.988,8.8910774 L1.10844444,7.3260402 C1.10844444,7.19630326 1.10844444,7.13143479 1.10844444,7.00238067 L4.988,8.56741788 C4.988,8.69715482 4.988,8.76202329 4.988,8.8910774 Z" id="Path"></path>
                            <polygon id="Path" points="3.02466778 9.1273352 1.11398667 8.34959638 1.11190833 8.02661968 3.02258944 8.80367567"></polygon>
                            <path d="M3.61768556,1.90235325 C2.67689333,2.42539797 2.83207556,3.22225591 3.96407444,3.67770086 C5.09607333,4.1331458 6.78090889,4.07988538 7.72170111,3.55684066 C8.66249333,3.03379594 8.50661833,2.23693799 7.37531222,1.78149305 C6.24400611,1.3260481 4.557785,1.3786257 3.61768556,1.90235325 Z" id="Path"></path>
                            <polygon id="Path" points="4.32293333 2.61658925 6.515575 2.25947125 6.12069167 3.34175047"></polygon>
                            <path d="M10.0217233,8.57288048 L7.750105,9.82654903 C7.74248444,8.62614091 7.73902056,8.02525403 7.7314,6.82211461 L9.71343722,5.729593 L9.71343722,5.99930927 L7.94477556,6.97848176 C7.95031778,7.96243404 7.95378167,8.45475159 7.96001667,9.43665538 L9.80834778,8.41651333 C9.80488389,7.87025253 9.80349833,7.60258473 9.80003444,7.06042088 L10.0078678,6.94365764 L10.0217233,8.57288048 Z" id="Path"></path>
                            <path d="M8.90011611,8.36734986 C8.8795596,8.38106008 8.85313228,8.38288341 8.83083833,8.37212964 L8.27661611,8.03959337 C8.23297111,8.01296316 8.22950722,7.92965839 8.26830278,7.85249905 C8.30709833,7.77533971 8.373605,7.73437015 8.41725,7.76031754 L8.89457389,8.04642163 L10.3307022,5.26458849 C10.3701906,5.18811198 10.43739,5.14850807 10.4803422,5.17582111 C10.5232944,5.20313415 10.5260656,5.28780458 10.4865772,5.36428109 L8.97701444,8.28199661 C8.96072334,8.31745433 8.93391224,8.34721329 8.90011611,8.36734986 L8.90011611,8.36734986 Z" id="Path"></path>
                        </g>
                        <text id="ATTESTATION" font-family="InriaSans-Bold, Inria Sans" font-size="16.038" font-weight="bold" line-spacing="25.98156" fill="#FFFFFF">
                            <tspan x="24.0153656" y="103.184957">ATTESTATION</tspan>
                        </text>
                        <path d="M72.5,2.70810811 L72.5,161 C70.8654478,161 69.2595064,160.575549 67.8441599,159.766272 L6.65584006,124.798826 C3.77709439,123.153809 2.00265367,120.114676 2,116.82464 L2,46.8855604 C2.00189833,43.5947766 3.77644023,40.5546712 6.65584006,38.9092796 L67.8483925,3.94183431 C69.2628037,3.13400319 70.8669879,2.70810811 72.5,2.70810811 Z" id="Path" fill="#EF590F" fill-rule="nonzero" opacity="0.2" style="mix-blend-mode: multiply;"></path>
                    </g>
                </g>
            </g>
        </g>
    </g>
</svg>