<svg width="135" height="135" xmlns="http://www.w3.org/2000/svg">
    <title>Layer 1</title>
    <defs>
        <style>.cls-1{
            fill:#384258;
        }
        .cls-2{
            fill:#e93100;
        }
        .cls-3{
            fill:#87cccb;
        }
        .cls-4 {
            fill: #fff;
        }</style>
    </defs>
    <polygon id="svg_5" points="73.72893953323364,58.13833546638489 74.20252656936646,134.1820023059845 8.432080745697021,107.24576878547668 7.958492755889893,31.202101945877075 73.72893953323364,58.13833546638489 " class="cls-2"/>
    <polygon id="svg_6" points="73.72893953323364,58.13833546638489 128.40286684036255,27.274964570999146 128.87645387649536,103.31862950325012 74.20252656936646,134.1820023059845 73.72893953323364,58.13833546638489 " class="cls-1"/>
    <polygon id="svg_7" points="7.958492755889893,31.202101945877075 62.62512254714966,0.3460214138031006 128.40286684036255,27.274964570999146 73.72893953323364,58.13833546638489 7.958492755889893,31.202101945877075 " class="cls-3"/>
    <path id="svg_8" d="m60.26447,73.358725l-40.801431,-16.699443c0,-1.384334 0,-2.076501 0,-3.45355l40.801431,16.706729c-0.014572,1.377048 -0.007286,2.069215 0,3.446264z" class="cls-4"/>
    <path id="svg_9" d="m60.330044,84.28768l-40.801431,-16.699443c0,-1.384334 0,-2.076501 0,-3.45355l40.801431,16.699443c-0.014572,1.384334 -0.007286,2.076501 0,3.45355z" class="cls-4"/>
    <path id="svg_10" d="m60.417476,95.216635l-40.801431,-16.699443c0,-1.384334 0,-2.076501 0,-3.45355l40.801431,16.699443c0,1.384334 0,2.076501 0,3.45355z" class="cls-4"/>
    <polygon id="svg_11" points="39.76903963088989,97.73757481575012 19.67433214187622,89.43886113166809 19.65247392654419,85.99259495735168 39.74718141555786,94.28402256965637 39.76903963088989,97.73757481575012 " class="cls-4"/>
    <path id="svg_12" d="m46.005827,20.644733c-9.894347,5.581053 -8.26229,14.08378 3.642985,18.943522s29.624753,4.291436 39.5191,-1.289617s8.255004,-14.08378 -3.642985,-18.943522s-29.632039,-4.298722 -39.5191,1.289617z" class="cls-1"/>
    <path id="svg_13" d="m53.422945,28.265858l23.060095,-3.810562l-4.153003,11.548262l-18.907092,-7.7377z" class="cls-4"/>
    <path id="svg_14" d="m113.357333,91.821373l-23.890695,13.377041c-0.080146,-12.808735 -0.116576,-19.220388 -0.196721,-32.058267l20.84516,-11.657552l0,2.877958l-18.601081,10.448081c0.058288,10.499083 0.094718,15.752267 0.160291,26.229491l19.438968,-10.885239c-0.03643,-5.828776 -0.051002,-8.684876 -0.087432,-14.469936l2.185791,-1.245901l0.145719,17.384324z" class="cls-4"/>
    <path id="svg_15" d="m101.561347,89.628296a0.728597,0.728597 0 0 1 -0.728597,0.051002l-5.828776,-3.548267c-0.459016,-0.284153 -0.495446,-1.173041 -0.087432,-1.996356s1.107467,-1.260473 1.566484,-0.983606l5.020033,3.052821l15.103816,-29.683041c0.4153,-0.816029 1.122039,-1.238615 1.573769,-0.947176s0.480874,1.194899 0.065574,2.010928l-15.876128,31.132949a2.054643,2.054643 0 0 1 -0.808743,0.910746z" class="cls-4"/>
    <g id="svg_16"/>
</svg>