<?xml version="1.0" encoding="UTF-8"?>
<svg width="20px" height="20px" viewBox="0 0 20 20" version="1.1" xmlns="http://www.w3.org/2000/svg" xmlns:xlink="http://www.w3.org/1999/xlink">
    <title>8919A29B-5C17-4D66-B2EB-F55D4393D92E</title>
    <g id="TROPHEE-APP" stroke="none" stroke-width="1" fill="none" fill-rule="evenodd">
        <g id="9-ECRAN-INFO" transform="translate(-40, -616)">
            <g id="POPIN" transform="translate(15, 63)">
                <g id="Group-4" transform="translate(25, 393)">
                    <g id="illu/ok" transform="translate(0, 160)">
                        <circle id="Oval" fill="#FFA029" cx="10" cy="10" r="10"></circle>
                        <path d="M14.9225493,7.56951872 C14.9225493,7.74336295 14.8562002,7.91729272 14.7235026,8.0497778 L9.28820849,13.4850719 C9.15604154,13.6184065 8.98194234,13.6842246 8.80784314,13.6842246 C8.63374394,13.6842246 8.46006914,13.6178758 8.32758405,13.4851782 L5.60993699,10.7675311 C5.47723938,10.6353642 5.41078431,10.4612653 5.41078431,10.2871658 C5.41078431,9.89905183 5.72819693,9.60775401 6.09019608,9.60775401 C6.26404064,9.60775401 6.43797008,9.67410282 6.57045549,9.80680043 L8.80784346,12.0451435 L13.7633029,7.08968403 C13.8949392,6.95656202 14.0690381,6.89010695 14.2431376,6.89010695 C14.6061984,6.89010695 14.9225493,7.18098037 14.9225493,7.56951872 L14.9225493,7.56951872 Z" id="ok1" fill="#FFFFFF" fill-rule="nonzero" transform="translate(10.1667, 10.2872) scale(-1, -1) rotate(-180) translate(-10.1667, -10.2872)"></path>
                    </g>
                </g>
            </g>
        </g>
    </g>
</svg>