<?xml version="1.0" encoding="UTF-8"?>
<svg width="45px" height="46px" viewBox="0 0 45 46" version="1.1" xmlns="http://www.w3.org/2000/svg" xmlns:xlink="http://www.w3.org/1999/xlink">
    <title>E45E62D4-6079-4A14-A9E1-C5E72E02C563</title>
    <g id="APP" stroke="none" stroke-width="1" fill="none" fill-rule="evenodd">
        <g id="4-ACTIVITE-croyance1" transform="translate(-44.000000, -345.000000)" fill-rule="nonzero">
            <g id="CARD-GAUCHE" transform="translate(76.508977, 418.046182) rotate(-11.000000) translate(-76.508977, -418.046182) translate(-62.991023, 303.999136)">
                <g id="citation" transform="translate(120.600000, 44.158103)">
                    <path d="M30.2329935,14.7145632 C33.6330526,16.0596355 36.2322162,18.8876285 37.2891105,22.3918983 C38.3460049,25.896168 37.7445948,29.6919846 35.6564238,32.6966462 L37.7983291,37.8477211 L32.6539765,35.7030169 C29.6534873,37.7940075 25.8628459,38.396472 22.3631952,37.3385792 C18.8635445,36.2806864 16.0390736,33.6785711 14.6953604,30.2743921 C14.8364741,30.2769153 14.9777979,30.2781769 15.1193316,30.2781769 C23.4695079,30.2781769 30.2386633,23.5001761 30.2386633,15.1390884 C30.2386633,14.9969492 30.2367734,14.8554408 30.2329935,14.7145632 L30.2329935,14.7145632 Z" id="Path" fill="#4C6CB5"></path>
                    <g id="Group" fill="#E2E7F6">
                        <path d="M15.1193316,0 C9.69343068,0.000436484815 4.68380098,2.9121149 1.9923751,7.62960107 C-0.699050793,12.3470872 -0.659536048,18.146943 2.09591735,22.8272222 L0,29.6473815 L7.27806827,28.0855322 C12.7469005,31.4047567 19.7098397,30.9197677 24.6670404,26.8743395 C29.6242411,22.8289114 31.5034337,16.0980922 29.3600626,10.065055 C27.2166915,4.03201779 21.5143795,0.00174125431 15.1193316,0 L15.1193316,0 Z" id="Path"></path>
                        <ellipse id="Oval" cx="31.4986076" cy="27.7549955" rx="1.2599443" ry="1.2615907"></ellipse>
                        <ellipse id="Oval" cx="27.7187747" cy="27.7549955" rx="1.2599443" ry="1.2615907"></ellipse>
                    </g>
                    <path d="M8.18963797,13.2467024 C8.18963797,11.8531878 9.31783053,10.723521 10.7095266,10.723521 L11.3394987,10.723521 C12.7311948,10.723521 13.8593873,11.8531878 13.8593873,13.2467024 L13.8593873,16.4006791 C13.8593873,18.8393297 11.8850504,20.8162466 9.44958227,20.8162466 C8.75373425,20.8162466 8.18963797,20.2514132 8.18963797,19.5546559 C8.18963797,18.8578986 8.75373425,18.2930652 9.44958227,18.2930652 C10.4933543,18.2930652 11.3394987,17.4458151 11.3394987,16.4006791 C11.3394987,16.0523005 11.0574506,15.7698838 10.7095266,15.7698838 C9.31783053,15.7698838 8.18963797,14.640217 8.18963797,13.2467024 L8.18963797,13.2467024 Z" id="Path" fill="#78A0D4"></path>
                    <path d="M16.3792759,13.2467024 C16.3792759,11.8531878 17.5074685,10.723521 18.8991645,10.723521 L19.5291367,10.723521 C20.9208327,10.723521 22.0490253,11.8531878 22.0490253,13.2467024 L22.0490253,16.4006791 C22.0490253,18.8393297 20.0746883,20.8162466 17.6392202,20.8162466 C16.9433722,20.8162466 16.3792759,20.2514132 16.3792759,19.5546559 C16.3792759,18.8578986 16.9433722,18.2930652 17.6392202,18.2930652 C18.6829923,18.2930652 19.5291367,17.4458151 19.5291367,16.4006791 C19.5291367,16.0523005 19.2470886,15.7698838 18.8991645,15.7698838 C17.5074685,15.7698838 16.3792759,14.640217 16.3792759,13.2467024 L16.3792759,13.2467024 Z" id="Path" fill="#78A0D4"></path>
                </g>
            </g>
        </g>
    </g>
</svg>