<?xml version="1.0" encoding="UTF-8"?>
<svg width="22px" height="20px" viewBox="0 0 22 20" version="1.1" xmlns="http://www.w3.org/2000/svg" xmlns:xlink="http://www.w3.org/1999/xlink">
    <title>26DAD296-F0BC-4244-B5C8-9B2F6B4E473C</title>
    <g id="APP" stroke="none" stroke-width="1" fill="none" fill-rule="evenodd">
        <g id="MODULE-2" transform="translate(-115.000000, -733.000000)" fill="currentcolor" fill-rule="nonzero">
            <g id="BOUTON1" transform="translate(96.000000, 713.000000)">
                <path d="M28.7626079,39.5290289 C29.1796068,39.5290289 29.5955891,39.3701116 29.9129147,39.052277 C30.5485839,38.4166078 30.5485839,37.3868237 29.9129147,36.7511545 L22.9271646,29.76515 L29.9144402,22.7778744 C30.5501094,22.1422052 30.5501094,21.1124211 29.9144402,20.4767519 C29.278771,19.8410827 28.2489869,19.8410827 27.6133177,20.4767519 L19.4767519,28.6133177 C18.8410827,29.2489869 18.8410827,30.278771 19.4767519,30.9144402 L27.6133177,39.051006 C27.9286102,39.3713827 28.3456091,39.5290289 28.7626079,39.5290289 Z M38.5264869,39.5290289 C38.9434865,39.5290289 39.359468,39.3701116 39.6767936,39.052277 C40.3124628,38.4166078 40.3124628,37.3868237 39.6767936,36.7511545 L32.6935857,29.76515 L39.6808612,22.7778744 C40.3165304,22.1422052 40.3165304,21.1124211 39.6808612,20.4767519 C39.045192,19.8410827 38.0154079,19.8410827 37.3797387,20.4767519 L29.2431729,28.6133177 C28.6075037,29.2489869 28.6075037,30.278771 29.2431729,30.9144402 L37.3797387,39.051006 C37.6924892,39.3713827 38.1094873,39.5290289 38.5264869,39.5290289 Z" id="gauche"></path>
            </g>
        </g>
    </g>
</svg>
