<?xml version="1.0" encoding="UTF-8"?>
<svg width="22px" height="20px" viewBox="0 0 22 20" version="1.1" xmlns="http://www.w3.org/2000/svg" xmlns:xlink="http://www.w3.org/1999/xlink">
    <title>6D70BF79-1162-47F0-8B92-2EBB6BC6FDFA</title>
    <g id="APP" stroke="none" stroke-width="1" fill="none" fill-rule="evenodd">
        <g id="MODULE-2" transform="translate(-238.000000, -733.000000)" fill="#E63312" fill-rule="nonzero">
            <g id="ACTIONS" transform="translate(96.000000, 713.000000)">
                <g id="BOUTON2" transform="translate(123.000000, 0.000000)">
                    <path d="M28.7964846,39.5967954 C29.2149304,39.5967954 29.6323562,39.4373267 29.9507829,39.1183892 C30.5886579,38.4805142 30.5886579,37.4471567 29.9507829,36.8092817 L22.9407921,29.7990354 L29.9523138,22.7875138 C30.5901888,22.1496388 30.5901888,21.1162813 29.9523138,20.4784063 C29.3144388,19.8405313 28.2810813,19.8405313 27.6432063,20.4784063 L19.4784063,28.6432063 C18.8405313,29.2810813 18.8405313,30.3144388 19.4784063,30.9523138 L27.6432063,39.1171138 C27.9595929,39.4386021 28.3780387,39.5967954 28.7964846,39.5967954 Z M38.5942446,39.5967954 C39.0126912,39.5967954 39.4301162,39.4373267 39.7485429,39.1183892 C40.3864179,38.4805142 40.3864179,37.4471567 39.7485429,36.8092817 L32.7411029,29.7990354 L39.7526246,22.7875138 C40.3904996,22.1496388 40.3904996,21.1162813 39.7526246,20.4784063 C39.1147496,19.8405313 38.0813921,19.8405313 37.4435171,20.4784063 L29.2787171,28.6432063 C28.6408421,29.2810813 28.6408421,30.3144388 29.2787171,30.9523138 L37.4435171,39.1171138 C37.7573529,39.4386021 38.1757979,39.5967954 38.5942446,39.5967954 Z" id="droite" transform="translate(29.615515, 29.798398) rotate(-180.000000) translate(-29.615515, -29.798398) "></path>
                </g>
            </g>
        </g>
    </g>
</svg>