<?xml version="1.0" encoding="UTF-8"?>
<svg width="38px" height="39px" viewBox="0 0 38 39" version="1.1" xmlns="http://www.w3.org/2000/svg" xmlns:xlink="http://www.w3.org/1999/xlink">
    <title>C4F85D4F-7435-4CD7-A087-B82B4F36E760</title>
    <g id="APP" stroke="none" stroke-width="1" fill="none" fill-rule="evenodd">
        <g id="4-ACTIVITE" transform="translate(-95.000000, -654.000000)" fill="#6477A0">
            <g id="CARD" transform="translate(20.000000, 46.000000)">
                <g id="BOUTON1" transform="translate(54.000000, 591.000000)">
                    <path d="M56.5497432,35.5707209 C57.3952359,35.5707209 58.0806432,36.2561282 58.0806432,37.1016209 L58.0806432,54.0398209 C58.0806432,54.8853137 57.3952359,55.5707209 56.5497432,55.5707209 L34.6115432,55.5707209 C33.9347052,55.5707209 33.3604564,55.1314844 33.1582913,54.522506 L51.1030472,48.6916478 C51.8598579,48.4457451 52.2941858,47.6662357 52.1248406,46.9049867 L52.0859455,46.7626012 L48.4482913,35.5701765 L56.5497432,35.5707209 Z M44.8517538,29.6534158 L50.0859455,45.7626012 C50.3472171,46.5667126 49.9071585,47.4303762 49.1030472,47.6916478 L28.2385791,54.4709244 C27.4344677,54.732196 26.5708042,54.2921375 26.3095326,53.4880261 L21.0753409,37.3788406 C20.8140693,36.5747293 21.2541279,35.7110657 22.0582392,35.4497941 L42.9227073,28.6705175 C43.7268187,28.4092458 44.5904822,28.8493044 44.8517538,29.6534158 Z M34.2064732,42.8938857 L34.1188715,42.9155295 L29.3912786,44.5433703 C29.1591917,44.6232842 29.0237505,44.8569872 29.0596595,45.0913119 L29.0813034,45.1789137 L29.4068716,46.1244322 C29.4867855,46.3565191 29.7204885,46.4919604 29.9548132,46.4560513 L30.0424149,46.4344075 L34.7700078,44.8065667 C35.0020947,44.7266528 35.1375359,44.4929498 35.1016269,44.2586251 L35.079983,44.1710233 L34.7544149,43.2255047 C34.6745009,42.9934179 34.4407979,42.8579766 34.2064732,42.8938857 Z M40.9613068,36.428829 L40.8737051,36.4504728 L27.636445,41.008427 C27.4043581,41.0883409 27.2689169,41.3220439 27.3048259,41.5563686 L27.3264698,41.6439704 L27.652038,42.5894889 C27.7319519,42.8215758 27.9656549,42.9570171 28.1999796,42.921108 L28.2875813,42.8994641 L41.5248414,38.34151 C41.7569283,38.2615961 41.8923695,38.0278931 41.8564605,37.7935684 L41.8348166,37.7059666 L41.5092484,36.760448 C41.4293345,36.5283612 41.1956315,36.3929199 40.9613068,36.428829 Z M37.6474784,20.5087162 C43.6197026,17.8971285 50.5798873,20.5991405 53.2256426,26.5563085 C53.4115469,26.9738564 53.2237581,27.4630531 52.8062103,27.6489573 C52.3886626,27.8348616 51.899468,27.6470773 51.7135637,27.2295294 C49.4358423,22.1129362 43.4602151,19.7879168 38.323389,22.0196302 L38.323389,22.0196302 L36.9769126,21.7119689 Z M37.550026,17.0000958 C37.8456599,16.995607 38.1212315,17.1491779 38.2729359,17.40296 C38.4246403,17.656742 38.4294298,17.9721796 38.2855004,18.2304504 L36.1368923,22.0859701 L40.4398012,23.0690893 C40.885382,23.1708946 41.1640672,23.6146388 41.0622619,24.0602196 C40.9604567,24.5058005 40.5167126,24.7844856 40.0711318,24.6826803 L34.6924958,23.4537813 C34.438551,23.3957605 34.2267436,23.2215634 34.1207933,22.9835952 C34.014843,22.7456269 34.0271162,22.4716627 34.1539206,22.2441216 L36.8396806,17.424722 C36.9836101,17.1664512 37.2543922,17.0045846 37.550026,17.0000958 Z" id="gauche"></path>
                </g>
            </g>
        </g>
    </g>
</svg>