<?xml version="1.0" encoding="UTF-8"?>
<svg width="22px" height="23px" viewBox="0 0 22 23" version="1.1" xmlns="http://www.w3.org/2000/svg" xmlns:xlink="http://www.w3.org/1999/xlink">
    <title>73FC34D6-B5A2-49F1-8192-60BF723216F4</title>
    <g id="APP" stroke="none" stroke-width="1" fill="none" fill-rule="evenodd">
        <g id="7-ACTIVITE-DEPOSER4" transform="translate(-62.000000, -310.000000)" fill="currentcolor" fill-rule="nonzero">
            <g id="CARD" transform="translate(20.000000, 46.000000)">
                <g id="AIDE" transform="translate(42.086030, 256.000000)">
                    <path d="M9.68241936,9.856 C10.5410199,9.856 11.2659696,10.5813551 11.2659696,11.476 L11.2659696,11.476 L11.2659696,17.4886309 C11.6106244,17.1782784 12.0617944,16.984 12.5619696,16.984 C13.5137196,16.984 14.2670199,17.6684498 14.469924,18.5703849 C14.81134,18.0098651 15.4220794,17.632 16.1259696,17.632 C17.0777196,17.632 17.8634194,18.3164498 18.033924,19.2172917 C18.3283598,19.0372288 18.6714752,18.928 19.0419696,18.928 C20.1152196,18.928 20.9859696,19.79875 20.9859696,20.872 L20.9859696,20.872 L20.9859696,24.76 C20.9859696,27.9756998 18.3696694,30.592 15.1539696,30.592 L15.1539696,30.592 L11.2659696,30.592 C9.5447196,30.592 7.89636973,29.7698505 6.86058173,28.3888002 L6.86058173,28.3888002 L3.16617168,23.464 C2.94759306,23.1723995 2.84196899,22.8312271 2.84196899,22.4928096 C2.84196899,21.5629299 3.60134399,20.872 4.46075404,20.872 C4.95323418,20.872 5.44004436,21.09475 5.7579696,21.52 L5.7579696,21.52 L8.0259696,24.5453505 L8.0259696,11.476 C8.0259696,10.5813551 8.75091936,9.856 9.68241936,9.856 Z M11.9139696,21.52 C11.5575695,21.52 11.2659696,21.8116005 11.2659696,22.168 L11.2659696,22.168 L11.2659696,26.056 C11.2659696,26.4141818 11.5557878,26.704 11.9139696,26.704 C12.2721514,26.704 12.5619696,26.4141818 12.5619696,26.056 L12.5619696,26.056 L12.5619696,22.168 C12.5619696,21.8098182 12.2703697,21.52 11.9139696,21.52 Z M14.5059696,21.52 C14.1495701,21.52 13.8579696,21.8116005 13.8579696,22.168 L13.8579696,22.168 L13.8579696,26.056 C13.8579696,26.4141818 14.1477878,26.704 14.5059696,26.704 C14.8641514,26.704 15.1539696,26.4141818 15.1539696,26.056 L15.1539696,26.056 L15.1539696,22.168 C15.1539696,21.8098182 14.8623691,21.52 14.5059696,21.52 Z M17.0979696,21.52 C16.7415701,21.52 16.4499696,21.8116005 16.4499696,22.168 L16.4499696,22.168 L16.4499696,26.056 C16.4499696,26.4141818 16.7397878,26.704 17.0979696,26.704 C17.4561514,26.704 17.7459696,26.4141818 17.7459696,26.056 L17.7459696,26.056 L17.7459696,22.168 C17.7459696,21.8098182 17.4543691,21.52 17.0979696,21.52 Z M4.47161053,15.5008999 L4.55980669,15.5039483 C4.73715577,15.5272577 4.8896339,15.6520124 4.95980402,15.8312184 C5.02997415,16.0104243 5.00717576,16.2168559 4.8999968,16.3727524 L4.8999968,16.3727524 L2.90001012,19.2818199 C2.80558355,19.4191675 2.65739038,19.5 2.50001278,19.5 C2.34263518,19.5 2.19444201,19.4191675 2.10001544,19.2818199 L2.10001544,19.2818199 L0.10002876,16.3727524 C-0.0656555619,16.1317573 -0.020884335,15.7898684 0.200028094,15.6091221 C0.420940523,15.4283758 0.734339111,15.4772171 0.900023433,15.7182122 L0.900023433,15.7182122 L2.50001278,18.0454662 L4.10000213,15.7182122 C4.20718109,15.5623157 4.3824576,15.4806388 4.55980669,15.5039483 Z M2.49998722,8.5 C2.65736482,8.5 2.80555799,8.58083253 2.89998456,8.71818007 L2.89998456,8.71818007 L4.89997124,11.6272476 C5.06565556,11.8682427 5.02088434,12.2101316 4.79997191,12.3908779 C4.57905948,12.5716242 4.26566089,12.5227829 4.09997657,12.2817878 L4.09997657,12.2817878 L2.49998722,9.95453378 L0.899997873,12.2817878 C0.79281891,12.4376843 0.617542402,12.5193612 0.440193314,12.4960517 C0.262844225,12.4727423 0.110366102,12.3479876 0.0401959769,12.1687816 C-0.0299741481,11.9895757 -0.00717576353,11.7831441 0.1000032,11.6272476 L0.1000032,11.6272476 L2.09998988,8.71818007 C2.19441645,8.58083253 2.34260962,8.5 2.49998722,8.5 Z" id="glisser2"></path>
                </g>
            </g>
        </g>
    </g>
</svg>