<?xml version="1.0" encoding="UTF-8"?>
<svg width="16px" height="20px" viewBox="0 0 16 20" version="1.1" xmlns="http://www.w3.org/2000/svg" xmlns:xlink="http://www.w3.org/1999/xlink">
    <title>5FB29B5B-6FE5-4101-9CF4-06042A63F6D0</title>
    <g id="EVOLS2023" stroke="none" stroke-width="1" fill="none" fill-rule="evenodd">
        <g id="EVOLS-ACCUEIL-IMPORTER1" transform="translate(-37.000000, -562.000000)" fill="#E63312" fill-rule="nonzero">
            <g id="BT1" transform="translate(0.000000, 526.000000)">
                <g transform="translate(20.000000, 20.000000)">
                    <g id="" transform="translate(17.618478, 16.065600)">
                        <path d="M13.8083395,4.73633954 L9.78263954,0.710639539 C9.32525988,0.254847766 8.7129,0 8.0703,0 L2.4192,0 C1.08296977,0 0,1.08296977 0,2.4192 L0.000245709229,16.9344 C0.000245709229,18.2706302 1.08321548,19.3536 2.41944571,19.3536 L12.096,19.3536 C13.4322302,19.3536 14.5152,18.2706302 14.5152,16.9344 L14.5152,6.4449 C14.5152,5.8023 14.2619395,5.18993954 13.8083395,4.73633954 Z M8.4672,1.28822465 C8.63643079,1.34741865 8.79477481,1.43360261 8.92533582,1.56412612 L12.9510358,5.58982612 C13.0825802,5.71913954 13.1695198,5.8779 13.2262198,6.048 L9.072,6.048 C8.73935988,6.048 8.4672,5.77583954 8.4672,5.4432 L8.4672,1.28822465 Z M13.3056,16.9344 C13.3056,17.6011926 12.7627926,18.144 12.096,18.144 L2.4192,18.144 C1.75240802,18.144 1.2096,17.6011926 1.2096,16.9344 L1.2096,2.4192 C1.2096,1.75240745 1.75240802,1.2096 2.4192,1.2096 L7.2576,1.2096 L7.2576,5.4432 C7.2576,6.4449 8.0703,7.2576 9.072,7.2576 L13.3056,7.2576 L13.3056,16.9344 Z M6.65355385,15.1202838 C6.65355385,15.4529239 6.92571374,15.7250838 7.25835385,15.7250838 C7.59099397,15.7250838 7.86315385,15.4529239 7.86315385,15.1202838 L7.86315385,10.531364 L9.85521374,12.5234233 C9.97239397,12.6406035 10.1273742,12.7010838 10.2823544,12.7010838 C10.4373347,12.7010838 10.5923149,12.6406035 10.7094951,12.5234233 C10.9457451,12.2871733 10.9457451,11.9042591 10.7094951,11.6683875 L7.68549512,8.6443875 C7.44924512,8.4081375 7.06633094,8.4081375 6.83045931,8.6443875 L3.80645873,11.6683875 C3.57020873,11.9046375 3.57020873,12.2875517 3.80645873,12.5234233 C4.04270873,12.7592949 4.42562292,12.7596733 4.66149455,12.5234233 L6.65355501,10.531364 L6.65355501,15.1202838 L6.65355385,15.1202838 Z" id="importer"></path>
                    </g>
                </g>
            </g>
        </g>
    </g>
</svg>