<?xml version="1.0" encoding="UTF-8"?>
<svg width="15px" height="21px" viewBox="0 0 15 21" version="1.1" xmlns="http://www.w3.org/2000/svg" xmlns:xlink="http://www.w3.org/1999/xlink">
    <title>E2F25950-A656-42CC-A148-B8424044E59D</title>
    <g id="APP" stroke="none" stroke-width="1" fill="none" fill-rule="evenodd">
        <g id="MODULE-6" transform="translate(-180.000000, -227.000000)" fill="#E63312" fill-rule="nonzero">
            <g id="CARD" transform="translate(20.000000, 66.000000)">
                <g id="INTRO" transform="translate(132.000000, 148.000000)">
                    <g id="illu/modulecheck" transform="translate(12.000000, 0.000000)">
                        <path d="M28.3384,16.3082543 C28.004097,16.3082543 27.7336,16.5787513 27.7336,16.9130543 C27.7336,17.2473572 28.0057605,17.5178543 28.3384,17.5178543 C29.0051926,17.5178543 29.548,18.0599061 29.548,18.7274543 L29.548,30.8234543 C29.548,31.4910024 29.0051926,32.0330543 28.3384,32.0330543 L18.6616,32.0330543 C17.994808,32.0330543 17.452,31.4910024 17.452,30.8234543 L17.452,18.7274543 C17.452,18.0599061 17.994808,17.5178543 18.6616,17.5178543 C18.9959036,17.5178543 19.2664006,17.2473572 19.2664006,16.9130543 C19.2664006,16.5787513 18.9957524,16.3082543 18.6616006,16.3082543 C17.3272605,16.3082543 16.2424006,17.3938703 16.2424006,18.7274543 L16.2424006,30.8234543 C16.2424006,32.1570382 17.3272605,33.2426543 18.6616006,33.2426543 L28.3384006,33.2426543 C29.6727401,33.2426543 30.7576006,32.1570382 30.7576006,30.8234543 L30.7576006,18.7274543 C30.7576006,17.3938703 29.6727401,16.3082543 28.3384006,16.3082543 L28.3384,16.3082543 Z M20.4760006,18.7274543 L26.5240006,18.7274543 C26.8566401,18.7274543 27.1288006,18.4552938 27.1288006,18.1226543 C27.1288006,17.7900147 26.8566401,17.5178543 26.5240006,17.5178543 L25.5835364,17.5178543 C25.7906808,17.1606438 25.9192006,16.7512703 25.9192006,16.3082543 C25.9192006,14.972024 24.8362308,13.8890543 23.5000006,13.8890543 C22.1637703,13.8890543 21.0808006,14.972024 21.0808006,16.3082543 C21.0808006,16.7512703 21.2085267,17.1606438 21.4163511,17.5178543 L20.4760006,17.5178543 C20.1433605,17.5178543 19.8712006,17.7900147 19.8712006,18.1226543 C19.8712006,18.4552938 20.1433605,18.7274543 20.4760006,18.7274543 Z M23.5000006,15.0986543 C24.1667926,15.0986543 24.7096006,15.6414617 24.7096006,16.3082543 C24.7096006,16.9750468 24.1667926,17.5178543 23.5000006,17.5178543 C22.8332086,17.5178543 22.2904006,16.9750468 22.2904006,16.3082543 C22.2904006,15.6414617 22.8347203,15.0986543 23.5000006,15.0986543 Z M19.4436827,25.2025938 L21.8628827,27.6217938 C21.9804407,27.738974 22.1354203,27.7994543 22.2904006,27.7994543 C22.4453808,27.7994543 22.5999071,27.7404102 22.7179185,27.6222483 L27.5563185,22.7838483 C27.7925685,22.5475983 27.7925685,22.1646841 27.5563185,21.9288125 C27.3200685,21.6929409 26.9371543,21.6925625 26.7012827,21.9288125 L22.2904006,26.340374 L20.2983407,24.3483147 C20.0620907,24.1120647 19.6791765,24.1120647 19.4433043,24.3483147 C19.2074321,24.5845647 19.2074327,24.9682345 19.4436827,25.2025938 Z" id="modulecheck"></path>
                    </g>
                </g>
            </g>
        </g>
    </g>
</svg>