<?xml version="1.0" encoding="UTF-8"?>
<svg width="18px" height="20px" viewBox="0 0 18 20" version="1.1" xmlns="http://www.w3.org/2000/svg" xmlns:xlink="http://www.w3.org/1999/xlink">
    <title>BEC6E9F1-E316-455E-B5A4-91A96DD926DC</title>
    <g id="APP" stroke="none" stroke-width="1" fill="none" fill-rule="evenodd" opacity="0.3">
        <g id="7-ACTIVITE-DEPOSER4" transform="translate(-310.000000, -195.000000)" fill="#8C9AB9" fill-rule="nonzero">
            <g id="CARD" transform="translate(20.000000, 46.000000)">
                <g id="REPONSE" transform="translate(13.000000, 131.000000)">
                    <path d="M288.389353,34 C288.551297,34 288.706598,34.0712911 288.821046,34.1981693 C288.935622,34.3249067 289,34.496884 289,34.6762173 C289,34.8555511 288.935622,35.0275284 288.821046,35.1542658 L286.429193,37.8018302 C286.314745,37.9287089 286.159444,38 285.9975,38 C285.835557,38 285.680255,37.9287089 285.565808,37.8018302 L283.174971,35.15314 C282.940127,34.8885062 282.941911,34.4636769 283.178968,34.2014733 C283.416025,33.9392707 283.799662,33.9377956 284.038357,34.1981693 L285.998009,36.3682493 L287.957661,34.1981693 C288.072108,34.0712911 288.22741,34 288.389353,34 Z M293.5,29 C294.328427,29 295,29.6715729 295,30.5 C295,31.3284271 294.328427,32 293.5,32 L278.5,32 C277.671573,32 277,31.3284271 277,30.5 C277,29.6715729 277.671573,29 278.5,29 L293.5,29 Z M278.5,24 L293.5,24 C294.328427,24 295,24.6715729 295,25.5 C295,26.3284271 294.328427,27 293.5,27 L278.5,27 C277.671573,27 277,26.3284271 277,25.5 C277,24.6715729 277.671573,24 278.5,24 Z M286.0025,18 C286.164443,18 286.319745,18.0712911 286.434192,18.1981698 L288.825029,20.84686 C289.059873,21.1114938 289.058089,21.5363231 288.821032,21.7985267 C288.583975,22.0607293 288.200338,22.0622044 287.961643,21.8018307 L286.001991,19.6317507 L284.042339,21.8018307 C283.927892,21.9287089 283.77259,22 283.610647,22 C283.448703,22 283.293402,21.9287089 283.178954,21.8018307 C283.064378,21.6750933 283,21.503116 283,21.3237827 C283,21.1444489 283.064378,20.9724716 283.178954,20.8457342 L285.570807,18.1981698 C285.685255,18.0712911 285.840556,18 286.0025,18 Z" id="slider"></path>
                </g>
            </g>
        </g>
    </g>
</svg>