<?xml version="1.0" encoding="UTF-8"?>
<svg width="20px" height="20px" viewBox="0 0 20 20" version="1.1" xmlns="http://www.w3.org/2000/svg" xmlns:xlink="http://www.w3.org/1999/xlink">
    <title>49E07475-D351-45DC-9BB9-A002EF359802</title>
    <g id="APP" stroke="none" stroke-width="1" fill="none" fill-rule="evenodd">
        <g id="4-ACTIVITE" transform="translate(-178.000000, -672.000000)" fill="currentcolor" fill-rule="nonzero">
            <g id="CARD" transform="translate(20.000000, 46.000000)">
                <g id="ACTIONS/OFF" transform="translate(54.000000, 591.000000)">
                    <g id="ANNULER" transform="translate(90.318841, 21.106170)">
                        <path d="M32.9950794,23.7528134 C32.9950794,28.8837851 28.8162894,33.0625751 23.6853177,33.0625751 C21.6545506,33.0625751 19.7281492,32.4147593 18.1052818,31.1972956 C17.5181718,30.7569636 17.3996685,29.9224527 17.8402087,29.3340959 C18.2805407,28.7469865 19.1133881,28.6297306 19.7034084,29.0690234 C20.8609954,29.9384614 22.2397884,30.3970887 23.6900983,30.3970887 C27.3526723,30.3972968 30.3339588,27.4160116 30.3339588,23.7528134 C30.3339588,20.0896151 27.3530885,17.1083299 23.6894753,17.1083299 C22.1318888,17.1083299 20.6503932,17.6692437 19.4774212,18.6318204 L21.3535106,20.5087409 C22.0607861,21.2164334 21.5595395,22.4255792 20.5593323,22.4255792 L14.4990473,22.4255792 C14.0587153,22.4264116 13.7019588,22.0688234 13.7019588,21.6280751 L13.7019588,15.5632169 C13.7019588,14.5636334 14.9106897,14.0630098 15.6175497,14.770286 L17.5967579,16.7507416 C19.2695212,15.3000148 21.4150494,14.4434665 23.6853177,14.4434665 C28.8162894,14.4434665 32.9950794,18.6218416 32.9950794,23.7528134 Z" id="annuler"></path>
                    </g>
                </g>
            </g>
        </g>
    </g>
</svg>