<?xml version="1.0" encoding="UTF-8"?>
<svg width="37px" height="39px" viewBox="0 0 37 39" version="1.1" xmlns="http://www.w3.org/2000/svg" xmlns:xlink="http://www.w3.org/1999/xlink">
    <title>29E61DED-7570-4F2B-897D-E6FC66EB22A4</title>
    <g id="APP" stroke="none" stroke-width="1" fill="none" fill-rule="evenodd">
        <g id="4-ACTIVITE-croyance1" transform="translate(-244.000000, -654.000000)" fill="currentcolor">
            <g id="CARD" transform="translate(20.000000, 46.000000)">
                <g id="ACTIONS/ON" transform="translate(54.000000, 591.000000)">
                    <g id="BOUTON2" transform="translate(149.000000, 0.000000)">
                        <path d="M56.5497432,35.5707209 C57.3952359,35.5707209 58.0806432,36.2561282 58.0806432,37.1016209 L58.0806432,54.0398209 C58.0806432,54.8853137 57.3952359,55.5707209 56.5497432,55.5707209 L34.6115432,55.5707209 C33.9347052,55.5707209 33.3604564,55.1314844 33.1582913,54.522506 L51.1030472,48.6916478 C51.8598579,48.4457451 52.2941858,47.6662357 52.1248406,46.9049867 L52.0859455,46.7626012 L48.4482913,35.5701765 L56.5497432,35.5707209 Z M44.7995286,29.5153615 L44.8517538,29.6534158 L50.0859455,45.7626012 C50.3318482,46.5194119 49.9565034,47.3289747 49.2411014,47.6394226 L49.1030472,47.6916478 L28.2385791,54.4709244 C27.4817684,54.7168271 26.6722056,54.3414823 26.3617578,53.6260804 L26.3095326,53.4880261 L21.0753409,37.3788406 C20.8294382,36.6220299 21.204783,35.8124671 21.920185,35.5020193 L22.0582392,35.4497941 L42.9227073,28.6705175 C43.679518,28.4246148 44.4890808,28.7999595 44.7995286,29.5153615 Z M42.4235275,40.3190541 L42.3352238,40.3376276 L37.5537,41.7994861 L37.4701068,41.8334669 C37.2857622,41.9285632 37.1789144,42.1295148 37.2031601,42.3355206 L37.2217335,42.4238243 L37.5141052,43.3801291 L37.548086,43.4637223 C37.6431823,43.6480669 37.8441339,43.7549147 38.0501397,43.730669 L38.1384434,43.7120956 L42.9199672,42.2502371 L43.0035605,42.2162563 C43.187905,42.12116 43.2947529,41.9202084 43.2705072,41.7142026 L43.2519337,41.6258988 L42.959562,40.6695941 L42.9255813,40.5860008 C42.8304849,40.4016563 42.6295333,40.2948084 42.4235275,40.3190541 Z M41.7654302,36.4277596 L41.6771265,36.446333 L28.2888599,40.5395369 L28.2052666,40.5735177 C28.0209221,40.668614 27.9140742,40.8695656 27.9383199,41.0755714 L27.9568933,41.1638751 L28.2492651,42.1201799 L28.2832458,42.2037731 C28.3783422,42.3881177 28.5792938,42.4949656 28.7852995,42.4707198 L28.8736033,42.4521464 L42.2618699,38.3589426 L42.3454631,38.3249618 C42.5298077,38.2298654 42.6366555,38.0289138 42.6124098,37.8229081 L42.5938364,37.7346043 L42.3014647,36.7782996 L42.2674839,36.6947063 C42.1723876,36.5103618 41.971436,36.4035139 41.7654302,36.4277596 Z M37.6474784,20.5087162 C43.6197026,17.8971285 50.5798873,20.5991405 53.2256426,26.5563085 C53.4115469,26.9738564 53.2237581,27.4630531 52.8062103,27.6489573 C52.3886626,27.8348616 51.899468,27.6470773 51.7135637,27.2295294 C49.4358423,22.1129362 43.4602151,19.7879168 38.323389,22.0196302 L38.323389,22.0196302 L36.9769126,21.7119689 Z M37.550026,17.0000958 C37.8456599,16.995607 38.1212315,17.1491779 38.2729359,17.40296 C38.4246403,17.656742 38.4294298,17.9721796 38.2855004,18.2304504 L36.1368923,22.0859701 L40.4398012,23.0690893 C40.885382,23.1708946 41.1640672,23.6146388 41.0622619,24.0602196 C40.9604567,24.5058005 40.5167126,24.7844856 40.0711318,24.6826803 L34.6924958,23.4537813 C34.438551,23.3957605 34.2267436,23.2215634 34.1207933,22.9835952 C34.014843,22.7456269 34.0271162,22.4716627 34.1539206,22.2441216 L36.8396806,17.424722 C36.9836101,17.1664512 37.2543922,17.0045846 37.550026,17.0000958 Z" id="droite" transform="translate(39.540322, 36.285360) scale(-1, 1) translate(-39.540322, -36.285360) "></path>
                    </g>
                </g>
            </g>
        </g>
    </g>
</svg>