<?xml version="1.0" encoding="UTF-8"?>
<svg width="22px" height="16px" viewBox="0 0 22 16" version="1.1" xmlns="http://www.w3.org/2000/svg" xmlns:xlink="http://www.w3.org/1999/xlink">
    <title>0D74070E-5E70-4E49-AB82-057F494FA017</title>
    <g id="EVOLS2023" stroke="none" stroke-width="1" fill="none" fill-rule="evenodd">
        <g id="EVOLS-ACCUEIL-IMPORTER1" transform="translate(-33.000000, -621.000000)" fill="#E63312" fill-rule="nonzero">
            <g id="BT1" transform="translate(0.000000, 526.000000)">
                <g transform="translate(20.000000, 78.000000)">
                    <path d="M18.8320312,20.8554688 C19.7460938,19.9882812 20.8007812,19.5546875 21.9960938,19.5546875 L21.9960938,19.5546875 C23.1914062,19.5546875 24.2578125,19.9882812 25.1953125,20.8554688 C26.015625,21.7460938 26.4492188,22.7539062 26.4960938,23.8789062 C26.5195312,25.0273438 26.15625,26.0703125 25.40625,27.0078125 L25.2304688,27.21875 C24.9726562,27.453125 24.703125,27.4648438 24.421875,27.2539062 C24.1875,27.0195312 24.1757812,26.7617188 24.3867188,26.4804688 L24.5625,26.2695312 C25.1484375,25.5664062 25.4179688,24.78125 25.3710938,23.9140625 C25.3476562,23.0703125 25.0195312,22.3203125 24.3867188,21.6640625 C23.7070312,21.0078125 22.9101562,20.6796875 21.9960938,20.6796875 C21.1054688,20.6796875 20.3203125,21.0078125 19.640625,21.6640625 L15.2460938,26.0585938 C14.5898438,26.7382812 14.2617188,27.5351562 14.2617188,28.4492188 C14.2617188,29.3398438 14.5898438,30.125 15.2460938,30.8046875 C15.9492188,31.484375 16.7460938,31.8242188 17.6367188,31.8242188 C18.5273438,31.8242188 19.3242188,31.484375 20.0273438,30.8046875 L20.8359375,30.03125 C21.09375,29.796875 21.3515625,29.796875 21.609375,30.03125 C21.84375,30.2890625 21.84375,30.546875 21.609375,30.8046875 L20.8359375,31.6132812 C19.8984375,32.5039062 18.8320312,32.9492188 17.6367188,32.9492188 C16.4414062,32.9492188 15.375,32.5039062 14.4375,31.6132812 C13.5703125,30.6757812 13.1367188,29.609375 13.1367188,28.4140625 C13.1367188,27.21875 13.5703125,26.1640625 14.4375,25.25 L18.8320312,20.8554688 Z M29.1328125,29.6445312 C28.21875,30.5117188 27.1640625,30.9453125 25.96875,30.9453125 L25.96875,30.9453125 C24.796875,30.9453125 23.7421875,30.5117188 22.8046875,29.6445312 C21.984375,28.7539062 21.5507812,27.7460938 21.5039062,26.6210938 C21.4570312,25.4726562 21.8085938,24.4296875 22.5585938,23.4921875 L22.7695312,23.28125 C23.0273438,23.046875 23.296875,23.0351562 23.578125,23.2460938 C23.8125,23.4804688 23.8359375,23.7382812 23.6484375,24.0195312 L23.4375,24.2304688 C22.8515625,24.9335938 22.5820312,25.71875 22.6289062,26.5859375 C22.6523438,27.4296875 22.9804688,28.1796875 23.6132812,28.8359375 C24.2929688,29.4921875 25.0898438,29.8203125 26.0039062,29.8203125 C26.8945312,29.8203125 27.6796875,29.4921875 28.359375,28.8359375 L32.7539062,24.4414062 C33.4101562,23.7617188 33.7382812,22.9765625 33.7382812,22.0859375 C33.7382812,21.171875 33.4101562,20.375 32.7539062,19.6953125 C32.0507812,19.015625 31.2539062,18.6757812 30.3632812,18.6757812 C29.4726562,18.6757812 28.6757812,19.015625 27.9726562,19.6953125 L27.1992187,20.46875 C26.9179688,20.703125 26.6484375,20.703125 26.390625,20.46875 C26.15625,20.1875 26.15625,19.9296875 26.390625,19.6953125 L27.1992187,18.8867188 C28.1132812,17.9960938 29.1679687,17.5507812 30.3632812,17.5507812 C31.5585937,17.5507812 32.625,17.9960938 33.5625,18.8867188 C34.4296875,19.8007812 34.8632812,20.8554688 34.8632812,22.0507812 C34.8632812,23.2460938 34.4296875,24.3007812 33.5625,25.2148438 L29.1328125,29.6445312 Z" id="lien"></path>
                </g>
            </g>
        </g>
    </g>
</svg>