<?xml version="1.0" encoding="UTF-8"?>
<svg width="49px" height="49px" viewBox="0 0 49 49" version="1.1" xmlns="http://www.w3.org/2000/svg" xmlns:xlink="http://www.w3.org/1999/xlink">
    <title>EE4BE5E8-55A1-448D-9A15-088D7D7B061E</title>
    <g id="EVOLS2023" stroke="none" stroke-width="1" fill="none" fill-rule="evenodd">
        <g id="EVOLS-ACCUEIL-PARTENAIRE" transform="translate(-254.000000, -1697.000000)" fill="#ACCAE1" fill-rule="nonzero">
            <g id="Group-2" transform="translate(18.000000, 1595.000000)">
                <g id="ePOCS" transform="translate(0.000000, 46.000000)">
                    <path d="M260.5,56 C274.042279,56 285,66.9596348 285,80.5 C285,94.0422793 274.040365,105 260.5,105 C246.957721,105 236,94.0403652 236,80.5 C236,79.4428633 236.856926,78.5859375 237.914062,78.5859375 C238.971199,78.5859375 239.828125,79.4428633 239.828125,80.5 C239.828125,91.9261875 249.075152,101.171875 260.5,101.171875 C271.926187,101.171875 281.171875,91.9248477 281.171875,80.5 C281.171875,69.0738125 271.924848,59.828125 260.5,59.828125 C259.442863,59.828125 258.585938,58.9711992 258.585938,57.9140625 C258.585938,56.8569258 259.442863,56 260.5,56 Z M260.5,70.9296875 C261.557137,70.9296875 262.414062,71.7866133 262.414062,72.84375 L262.414062,78.5859375 L268.15625,78.5859375 C269.213387,78.5859375 270.070312,79.4428633 270.070312,80.5 C270.070312,81.5571367 269.213387,82.4140625 268.15625,82.4140625 L262.414062,82.4140625 L262.414062,88.15625 C262.414062,89.2133867 261.557137,90.0703125 260.5,90.0703125 C259.442863,90.0703125 258.585938,89.2133867 258.585938,88.15625 L258.585938,82.4140625 L252.84375,82.4140625 C251.786613,82.4140625 250.929688,81.5571367 250.929688,80.5 C250.929688,79.4428633 251.786613,78.5859375 252.84375,78.5859375 L258.585938,78.5859375 L258.585938,72.84375 C258.585938,71.7866133 259.442863,70.9296875 260.5,70.9296875 Z M238.377744,69.8862363 C238.782377,68.9096816 239.901816,68.4459043 240.878658,68.8504414 C241.855213,69.2550742 242.319086,70.3747051 241.914453,71.3513555 L240.888898,73.8271953 C240.485223,74.8015488 239.36674,75.2683887 238.387984,74.8629902 C237.41143,74.4583574 236.947557,73.3387266 237.352189,72.3619805 Z M244.123281,62.2284551 C244.870723,61.480918 246.082707,61.4810137 246.830244,62.2284551 C247.577781,62.9758965 247.577781,64.1878809 246.830244,64.935418 L244.935418,66.8302441 C244.187881,67.5777813 242.975801,67.5775898 242.228455,66.8302441 C241.480918,66.0828027 241.480918,64.8708184 242.228455,64.1232812 Z M252.36198,57.3521895 C253.338727,56.9472695 254.458262,57.411334 254.862895,58.3879844 C255.267527,59.3646348 254.803654,60.4842656 253.8271,60.8888984 L251.351355,61.9144531 C250.371547,62.320043 249.253734,61.8520547 248.850441,60.8786582 C248.445809,59.9020078 248.909682,58.782377 249.886236,58.3777441 Z" id="ajouter"></path>
                </g>
            </g>
        </g>
    </g>
</svg>