<?xml version="1.0" encoding="UTF-8"?>
<svg width="20px" height="20px" viewBox="0 0 20 20" version="1.1" xmlns="http://www.w3.org/2000/svg" xmlns:xlink="http://www.w3.org/1999/xlink">
    <title>5A433D25-CBA5-4896-97F3-9EC575920884</title>
    <g id="TROPHEE-APP" stroke="none" stroke-width="1" fill="none" fill-rule="evenodd">
        <g id="9-ECRAN-INFO" transform="translate(-40, -581)">
            <g id="POPIN" transform="translate(15, 63)">
                <g id="Group-4" transform="translate(25, 393)">
                    <g id="illu/ok" transform="translate(0, 125)">
                        <circle id="Oval" stroke="#CDD3E0" fill="#E6EAF4" cx="10" cy="10" r="9.5"></circle>
                        <path d="M10.3497505,9.86718738 L10.3497505,7.42424242 C10.3497505,7.24627379 10.2054959,7.10227273 10.0272138,7.10227273 C9.84893183,7.10227273 9.70467719,7.24627379 9.70467719,7.42424242 L9.70467719,10 C9.70467719,10.0855232 9.73870488,10.1672635 9.7991805,10.2275923 L11.4118635,11.8374408 C11.4745968,11.8996211 11.557247,11.9318182 11.6398971,11.9318182 C11.7225472,11.9318182 11.804955,11.9003857 11.8678902,11.8374813 C11.993881,11.7117119 11.993881,11.5078647 11.8678902,11.3822967 L10.3497505,9.86718738 Z M10.0090713,4.84848485 C7.15865374,4.84848485 4.84848485,7.15459293 4.84848485,10 C4.84848485,12.8454071 7.15865374,15.1515152 10.0090713,15.1515152 C12.8594888,15.1515152 15.1515152,12.8454071 15.1515152,10 C15.1515152,7.15459293 12.8776314,4.84848485 10.0090713,4.84848485 Z M10.0272138,14.5075758 C7.53763406,14.5075758 5.51170072,12.4852036 5.51170072,10 C5.51170072,7.5147964 7.53763406,5.49242424 10.0272138,5.49242424 C12.5167936,5.49242424 14.542727,7.5147964 14.542727,10 C14.542727,12.4852036 12.5167936,14.5075758 10.0272138,14.5075758 Z" id="attente" fill="#8C9AB9" fill-rule="nonzero"></path>
                    </g>
                </g>
            </g>
        </g>
    </g>
</svg>