<?xml version="1.0" encoding="UTF-8"?>
<svg width="74px" height="74px" viewBox="0 0 74 74" version="1.1" xmlns="http://www.w3.org/2000/svg" xmlns:xlink="http://www.w3.org/1999/xlink">
    <title>54A79B44-A7D2-4F76-91D4-9AF732F007D5</title>
    <defs>
        <path d="M167,112 C171.389575,112 175.515775,111.160494 179.378601,109.481481 C183.241427,107.802469 186.643347,105.492455 189.584362,102.55144 C192.525377,99.6104252 194.829904,96.2139918 196.497942,92.3621399 C198.165981,88.5102881 199,84.3895748 199,80 C199,75.6104252 198.165981,71.4897119 196.497942,67.6378601 C194.829904,63.7860082 192.51989,60.3840878 189.567901,57.4320988 C186.615912,54.4801097 183.208505,52.170096 179.345679,50.5020576 C175.482853,48.8340192 171.356653,48 166.967078,48 C162.621399,48 158.517147,48.8340192 154.654321,50.5020576 C150.791495,52.170096 147.384088,54.4801097 144.432099,57.4320988 C141.48011,60.3840878 139.170096,63.7860082 137.502058,67.6378601 C135.834019,71.4897119 135,75.6104252 135,80 C135,84.3895748 135.839506,88.5102881 137.518519,92.3621399 C139.197531,96.2139918 141.507545,99.6104252 144.44856,102.55144 C147.389575,105.492455 150.791495,107.802469 154.654321,109.481481 C158.517147,111.160494 162.632373,112 167,112 Z M167,106.106996 C163.400549,106.106996 160.020576,105.432099 156.860082,104.082305 C153.699588,102.73251 150.928669,100.866941 148.547325,98.4855967 C146.165981,96.1042524 144.305898,93.3333333 142.967078,90.1728395 C141.628258,87.0123457 140.958848,83.6213992 140.958848,80 C140.958848,76.4005487 141.628258,73.0205761 142.967078,69.8600823 C144.305898,66.6995885 146.165981,63.9231824 148.547325,61.5308642 C150.928669,59.138546 153.694102,57.2674897 156.843621,55.9176955 C159.993141,54.5679012 163.367627,53.8930041 166.967078,53.8930041 C170.610425,53.8930041 174.006859,54.5679012 177.156379,55.9176955 C180.305898,57.2674897 183.076818,59.138546 185.469136,61.5308642 C187.861454,63.9231824 189.73251,66.6995885 191.082305,69.8600823 C192.432099,73.0205761 193.106996,76.4005487 193.106996,80 C193.128944,83.6213992 192.459534,87.0123457 191.098765,90.1728395 C189.737997,93.3333333 187.872428,96.1042524 185.502058,98.4855967 C183.131687,100.866941 180.366255,102.73251 177.205761,104.082305 C174.045267,105.432099 170.643347,106.106996 167,106.106996 Z M161.17284,92.2469136 L178.983539,81.744856 C179.641975,81.3497942 179.971193,80.7846365 179.971193,80.0493827 C179.971193,79.3141289 179.641975,78.7489712 178.983539,78.3539095 L161.17284,67.81893 C160.470508,67.4238683 159.768176,67.3635117 159.065844,67.6378601 C158.363512,67.9122085 158.012346,68.4334705 158.012346,69.2016461 L158.012346,90.8971193 C158.012346,91.6433471 158.358025,92.1646091 159.049383,92.4609053 C159.740741,92.7572016 160.44856,92.6858711 161.17284,92.2469136 Z" id="path-1"></path>
        <filter x="-13.3%" y="-10.2%" width="126.6%" height="126.6%" filterUnits="objectBoundingBox" id="filter-2">
            <feOffset dx="0" dy="2" in="SourceAlpha" result="shadowOffsetOuter1"></feOffset>
            <feGaussianBlur stdDeviation="2.5" in="shadowOffsetOuter1" result="shadowBlurOuter1"></feGaussianBlur>
            <feColorMatrix values="0 0 0 0 0   0 0 0 0 0   0 0 0 0 0  0 0 0 0.5 0" type="matrix" in="shadowBlurOuter1"></feColorMatrix>
        </filter>
    </defs>
    <g id="APP" stroke="none" stroke-width="1" fill="none" fill-rule="evenodd">
        <g id="MODULE-3" transform="translate(-150.000000, -289.000000)" fill-rule="nonzero">
            <g id="CARD" transform="translate(20.000000, 66.000000)">
                <g id="play" transform="translate(0.000000, 178.000000)">
                    <use fill="black" fill-opacity="1" filter="url(#filter-2)" xlink:href="#path-1"></use>
                    <use fill="#FFFFFF" xlink:href="#path-1"></use>
                </g>
            </g>
        </g>
    </g>
</svg>