<?xml version="1.0" encoding="UTF-8"?>
<svg width="16px" height="17px" viewBox="0 0 16 17" version="1.1" xmlns="http://www.w3.org/2000/svg" xmlns:xlink="http://www.w3.org/1999/xlink">
    <title>5853C833-AFC5-4887-888B-79189321A7FE</title>
    <g id="EVOLS2023" stroke="none" stroke-width="1" fill="none" fill-rule="evenodd">
        <g id="EVOLS-ACCUEIL-IMPORTER1" transform="translate(-36.000000, -679.000000)" fill="#E63312" fill-rule="nonzero">
            <g id="BT2" transform="translate(0.000000, 526.000000)">
                <g transform="translate(20.000000, 136.000000)">
                    <path d="M21.1875,18.5 L17.8125,18.5 C17.4609375,18.5234375 17.2734375,18.7109375 17.25,19.0625 L17.25,22.4375 C17.2734375,22.7890625 17.4609375,22.9765625 17.8125,23 L21.1875,23 C21.5390625,22.9765625 21.7265625,22.7890625 21.75,22.4375 L21.75,19.0625 C21.7265625,18.7109375 21.5390625,18.5234375 21.1875,18.5 Z M17.8125,17.375 L21.1875,17.375 C21.65625,17.3984375 22.0546875,17.5625 22.3828125,17.8671875 C22.6875,18.1953125 22.8515625,18.59375 22.875,19.0625 L22.875,22.4375 C22.8515625,22.90625 22.6875,23.3046875 22.3828125,23.6328125 C22.0546875,23.9375 21.65625,24.1015625 21.1875,24.125 L17.8125,24.125 C17.34375,24.1015625 16.9453125,23.9375 16.6171875,23.6328125 C16.3125,23.3046875 16.1484375,22.90625 16.125,22.4375 L16.125,19.0625 C16.1484375,18.59375 16.3125,18.1953125 16.6171875,17.8671875 C16.9453125,17.5625 17.34375,17.3984375 17.8125,17.375 Z M21.1875,27.5 L17.8125,27.5 C17.4609375,27.5234375 17.2734375,27.7109375 17.25,28.0625 L17.25,31.4375 C17.2734375,31.7890625 17.4609375,31.9765625 17.8125,32 L21.1875,32 C21.5390625,31.9765625 21.7265625,31.7890625 21.75,31.4375 L21.75,28.0625 C21.7265625,27.7109375 21.5390625,27.5234375 21.1875,27.5 Z M17.8125,26.375 L21.1875,26.375 C21.65625,26.3984375 22.0546875,26.5625 22.3828125,26.8671875 C22.6875,27.1953125 22.8515625,27.59375 22.875,28.0625 L22.875,31.4375 C22.8515625,31.90625 22.6875,32.3046875 22.3828125,32.6328125 C22.0546875,32.9375 21.65625,33.1015625 21.1875,33.125 L17.8125,33.125 C17.34375,33.1015625 16.9453125,32.9375 16.6171875,32.6328125 C16.3125,32.3046875 16.1484375,31.90625 16.125,31.4375 L16.125,28.0625 C16.1484375,27.59375 16.3125,27.1953125 16.6171875,26.8671875 C16.9453125,26.5625 17.34375,26.3984375 17.8125,26.375 Z M26.8125,18.5 C26.4609375,18.5234375 26.2734375,18.7109375 26.25,19.0625 L26.25,22.4375 C26.2734375,22.7890625 26.4609375,22.9765625 26.8125,23 L30.1875,23 C30.5390625,22.9765625 30.7265625,22.7890625 30.75,22.4375 L30.75,19.0625 C30.7265625,18.7109375 30.5390625,18.5234375 30.1875,18.5 L26.8125,18.5 Z M25.125,19.0625 C25.1484375,18.59375 25.3125,18.1953125 25.6171875,17.8671875 L25.6171875,17.8671875 C25.9453125,17.5625 26.34375,17.3984375 26.8125,17.375 L30.1875,17.375 C30.65625,17.3984375 31.0546875,17.5625 31.3828125,17.8671875 C31.6875,18.1953125 31.8515625,18.59375 31.875,19.0625 L31.875,22.4375 C31.8515625,22.90625 31.6875,23.3046875 31.3828125,23.6328125 C31.0546875,23.9375 30.65625,24.1015625 30.1875,24.125 L26.8125,24.125 C26.34375,24.1015625 25.9453125,23.9375 25.6171875,23.6328125 C25.3125,23.3046875 25.1484375,22.90625 25.125,22.4375 L25.125,19.0625 Z M25.125,26.9375 C25.1484375,26.5859375 25.3359375,26.3984375 25.6875,26.375 L27.9375,26.375 C28.2890625,26.3984375 28.4765625,26.5859375 28.5,26.9375 L28.5,29.328125 L30.75,29.328125 L30.75,26.9375 C30.7734375,26.5859375 30.9609375,26.3984375 31.3125,26.375 C31.6640625,26.3984375 31.8515625,26.5859375 31.875,26.9375 L31.875,29.890625 C31.8515625,30.2421875 31.6640625,30.4296875 31.3125,30.453125 L27.9375,30.453125 C27.5859375,30.4296875 27.3984375,30.2421875 27.375,29.890625 L27.375,27.5 L26.25,27.5 L26.25,32.84375 C26.2265625,33.1953125 26.0390625,33.3828125 25.6875,33.40625 C25.3359375,33.3828125 25.1484375,33.1953125 25.125,32.84375 L25.125,26.9375 Z M19.21875,19.90625 L19.78125,19.90625 C20.1328125,19.9296875 20.3203125,20.1171875 20.34375,20.46875 L20.34375,21.03125 C20.3203125,21.3828125 20.1328125,21.5703125 19.78125,21.59375 L19.21875,21.59375 C18.8671875,21.5703125 18.6796875,21.3828125 18.65625,21.03125 L18.65625,20.46875 C18.6796875,20.1171875 18.8671875,19.9296875 19.21875,19.90625 Z M18.65625,29.46875 C18.6796875,29.1171875 18.8671875,28.9296875 19.21875,28.90625 L19.78125,28.90625 C20.1328125,28.9296875 20.3203125,29.1171875 20.34375,29.46875 L20.34375,30.03125 C20.3203125,30.3828125 20.1328125,30.5703125 19.78125,30.59375 L19.21875,30.59375 C18.8671875,30.5703125 18.6796875,30.3828125 18.65625,30.03125 L18.65625,29.46875 Z M28.21875,19.90625 L28.78125,19.90625 C29.1328125,19.9296875 29.3203125,20.1171875 29.34375,20.46875 L29.34375,21.03125 C29.3203125,21.3828125 29.1328125,21.5703125 28.78125,21.59375 L28.21875,21.59375 C27.8671875,21.5703125 27.6796875,21.3828125 27.65625,21.03125 L27.65625,20.46875 C27.6796875,20.1171875 27.8671875,19.9296875 28.21875,19.90625 Z M27.375,32 C27.3984375,31.6484375 27.5859375,31.4609375 27.9375,31.4375 L28.5,31.4375 C28.8515625,31.4609375 29.0390625,31.6484375 29.0625,32 L29.0625,32.5625 C29.0390625,32.9140625 28.8515625,33.1015625 28.5,33.125 L27.9375,33.125 C27.5859375,33.1015625 27.3984375,32.9140625 27.375,32.5625 L27.375,32 Z M30.75,31.4375 L31.3125,31.4375 C31.6640625,31.4609375 31.8515625,31.6484375 31.875,32 L31.875,32.5625 C31.8515625,32.9140625 31.6640625,33.1015625 31.3125,33.125 L30.75,33.125 C30.3984375,33.1015625 30.2109375,32.9140625 30.1875,32.5625 L30.1875,32 C30.2109375,31.6484375 30.3984375,31.4609375 30.75,31.4375 Z" id="qr"></path>
                </g>
            </g>
        </g>
    </g>
</svg>