<svg width="100%" height="100%" viewBox="0 0 1788 481" xmlns="http://www.w3.org/2000/svg" style="fill-rule:evenodd;clip-rule:evenodd;stroke-linejoin:round;stroke-miterlimit:2;">
    <g transform="matrix(1,0,0,1,-409.852,-1313)">
        <g transform="matrix(5.80442,0,0,5.80442,1088.83,1434.73)">
            <path d="M0,44.369C-3.735,48.018 -11.915,54.126 -19.063,54.126C-24.351,54.126 -13.819,44.652 -8.604,37.015C-3.625,29.719 -7.696,27.534 -11.807,27.534C-21.986,27.534 -31.928,34.679 -38.669,39.704C-36.633,36.977 -33.464,33.482 -30.082,29.02C-28.208,26.542 -39.432,27.43 -42.304,31.211C-43.219,32.408 -44.229,33.751 -45.305,35.186C-55.046,46.894 -69.759,54.794 -76.98,54.794C-81.004,54.794 -82.468,52.022 -79.964,46.783C-73.926,34.151 -53.119,10.148 -41.811,-0.363C-36.678,-5.173 -52.104,-3.214 -55.642,0.34C-71.311,16.111 -87.085,33.707 -91.533,47.402C-93.991,54.974 -91.722,61.777 -82.314,61.777C-74.589,61.777 -66.034,57.951 -58.768,53.406C-60.555,55.843 -62.188,58.057 -63.498,59.84C-65.548,62.618 -55.152,61.603 -52.959,58.804C-44.736,48.287 -24.98,35.345 -19.479,35.345C-14.473,35.345 -31.717,48.267 -31.557,56.177C-31.357,66.565 -7.294,60.203 0.871,49.511C2.152,47.844 1.153,43.251 0,44.369M75.313,21.148C79.186,18.814 86.473,13.158 90.059,9.524C92.861,6.681 80.534,7.949 77.57,10.48C74.378,13.209 69.072,18.097 66.07,21.616C64.32,23.667 71.47,23.461 75.313,21.148M82.882,54.866C73.341,54.866 92.445,33.065 104.889,33.065C112.34,33.065 92.082,54.866 82.882,54.866M189.612,53.669C191.801,54.984 191.703,48.135 187.293,45.391C171.504,35.555 128.326,52.697 111.948,54.65C108.879,55.017 107.762,54.242 108.486,52.16C109.875,48.144 115.349,40.76 116.451,38.216C117.49,35.788 117.348,27.439 105,27.439C94.91,27.439 85.654,32.125 79.147,38.023C72.948,43.309 60.937,53.77 53.543,53.77C45.89,53.77 68.306,30.645 69.544,29.478C72.876,26.352 62.371,27.123 57.957,30.486C56.194,31.829 49.148,39.364 44.74,46.663C31.993,55.474 19.303,57.52 25.341,50.195C28.551,46.291 33.982,41.062 37.719,36.921C42.934,31.136 41.992,27.331 30.477,27.331C15.062,27.331 13.432,28.672 4.735,38.856C3.122,40.75 3.957,45.493 5.623,43.847C16.055,33.526 15.818,34.367 29.629,34.367C27.408,36.725 23.45,39.079 16.738,47.598C10.756,55.199 14.669,61.342 23.164,61.342C27.861,61.342 34.873,59.138 41.286,54.619C40.518,58.579 42.108,61.414 48.157,61.414C55.164,61.414 63.165,57.245 69.796,52.609C68.965,57.639 71.553,61.414 78.971,61.414C84.678,61.414 91.324,59.172 98.185,53.224C98.148,57.769 101.354,61.379 107.329,61.379C121.879,61.379 172.129,43.13 189.612,53.669M-35.732,-10.258C-31.857,-12.593 -27.867,-15.717 -24.285,-19.352C-21.482,-22.196 -33.807,-20.926 -36.774,-18.395C-39.961,-15.669 -43.242,-12.658 -46.242,-9.142C-47.996,-7.094 -39.575,-7.943 -35.732,-10.258" style="fill:rgb(230,51,18);fill-rule:nonzero;"/>
        </g>
        <g transform="matrix(4.98768,0,0,4.98768,-3196.6,-4562.7)">
            <text x="725px" y="1215.04px" style="font-family:'InriaSans-Regular', 'Inria Sans', sans-serif;font-size:50px;fill:#384258;">by</text>
        </g>
    </g>
</svg>
